<?xml version="1.0" encoding="UTF-8" standalone="no"?>
<!DOCTYPE svg PUBLIC "-//W3C//DTD SVG 1.1//EN" "http://www.w3.org/Graphics/SVG/1.1/DTD/svg11.dtd">
<svg width="100%" height="100%" viewBox="0 0 500 500" version="1.1" xmlns="http://www.w3.org/2000/svg" xmlns:xlink="http://www.w3.org/1999/xlink" xml:space="preserve" xmlns:serif="http://www.serif.com/" style="fill-rule:evenodd;clip-rule:evenodd;stroke-linejoin:round;stroke-miterlimit:2;">
    <path d="M63.183,155.985L67.017,155.985L67.017,89.148L108.16,156.085L151.123,156.085L151.123,73.003L147.164,73.003L147.164,139.922L106.012,72.972L63.239,72.972L63.183,155.985Z" style="fill:rgb(19,16,13);"/>
    <path d="M161,156.085L166,156.085L197,83L228,156.085L273,156.085L238,72.972L196,72.972L161,156.085Z" style="fill:rgb(19,16,13);"/>
    <g transform="matrix(1,0,0,1,10,142.919)">
        <path d="M161,156.085L166,156.085L197,83L228,156.085L273,156.085L238,72.972L196,72.972L161,156.085Z" style="fill:rgb(19,16,13);"/>
    </g>
    <path d="M63,299.004L63,215.998L102,215.998L102,256L122,256L122,215.998L161,215.998L161,299.004L122,299.004L122,260L102,260L102,299.004L63,299.004Z" style="fill:rgb(19,16,13);"/>
    <path d="M63,359.014L63,442L104,442L104,406L106.052,403.948L128,442L177,442L137,379L161,359L154,359.014L104,401L104,359.014L63,359.014Z" style="fill:rgb(19,16,13);"/>
    <path d="M183,359L224,359.014L224,439L240,439C243.237,439 249.67,438.007 256.01,435.056C261.037,432.717 262.365,430.22 264.625,426.729C266.618,423.652 267.046,418.294 267,417L267,359.014L271,359L271,417C271,419.696 271.053,425.323 267,431C264.764,434.132 261.689,436.999 257.744,438.908C251.666,441.85 244.219,442.991 240,443C228.263,443.026 216,443 216,443L211.348,442.535L208.138,442L202.075,440.175C202.075,440.175 196.219,437.571 193,435C185.573,429.069 182.903,421.523 183,416C183.097,410.477 183,359 183,359Z" style="fill:rgb(19,16,13);"/>
    <g transform="matrix(1.21569,0,0,1,-59.3137,0)">
        <rect x="275" y="156.085" width="51" height="3.875" style="fill:rgb(19,16,13);"/>
    </g>
    <g transform="matrix(1.21569,0,0,1,-48.3137,142.919)">
        <rect x="275" y="156.085" width="51" height="3.875" style="fill:rgb(19,16,13);"/>
    </g>
</svg>
